<svg width="135" height="32" viewBox="0 0 135 32" fill="none" xmlns="http://www.w3.org/2000/svg">
    <g clip-path="url(#bgms80fs1a)">
        <path d="M11.31 32H.86L18.78 4.874h10.45L11.31 32z" fill="#C91414"/>
        <path d="M10.45 0H0l9.658 14.619 5.226-7.91L10.45 0z" fill="#FF3636"/>
        <path d="M31.92 25.292 36.355 32h10.45l-9.658-14.62-5.225 7.912z" fill="#C91414"/>
        <path d="M28.025 27.126H17.576L35.495 0h10.45l-17.92 27.126zM51.711 5.389h1.968V4.31h.907v1.431h1.558V4.225h.933v3.87h-.933V6.48h-1.558v1.385h-3.783V4.311h.907V5.39h.001zm4.435 3.862v-.794h.932v2.974h-5.804V8.457h.932v.794h3.94zM53.68 7.127V6.121h-1.968v1.006h1.968zm2.465 2.847h-3.938v.732h3.938v-.732zM58.39 9.557v-.756h6.892v.756h-2.996v1.92h-.925v-1.92h-2.97zm6.49-5.247V7.77h-6.087V4.31h6.087zm-5.154 2.722h4.221V5.056h-4.221v1.976zM67.294 5.389h1.968V4.31h.907v1.431h1.558V4.225h.933v3.87h-.933V6.48h-1.558v1.385h-3.783V4.311h.907V5.39h.001zM71.73 9.25v-.794h.932v2.974h-5.804V8.457h.932v.794h3.94zm-2.465-2.124V6.121h-1.968v1.006h1.968zm2.465 2.847H67.79v.732h3.938v-.732zM74.075 6.239c0-.723.24-1.282.651-1.628.352-.283.823-.432 1.387-.432.565 0 1.045.149 1.387.432.42.346.651.905.651 1.628 0 .723-.232 1.29-.651 1.637-.342.283-.813.432-1.387.432-.574 0-1.035-.15-1.387-.432-.41-.346-.65-.905-.65-1.637zm6.515 5.152h-5.94V8.968h.932v1.683h5.008v.74zm-5.608-5.152c0 .48.129.833.368 1.061.187.173.445.267.761.267.317 0 .574-.094.771-.267.232-.228.36-.581.36-1.061s-.128-.835-.36-1.054c-.197-.173-.454-.267-.77-.267-.317 0-.575.094-.762.267-.24.22-.368.583-.368 1.054zm5.47 2.981h-.933V4.225h.933V9.22zM88.1 4.153h1.472l-2.437 4.205v2.739h-1.396v-2.74l-2.437-4.204h1.462l1.663 3.09 1.672-3.09h.001zM93.566 7.532l2.542 3.563h-1.54l-2.131-3.011h-.717v3.01h-1.406v-6.94h1.406v2.843h.717l1.836-2.844h1.519l-2.228 3.38h.002z" fill="#FF3636"/>
        <path d="M57.752 21.96v.728c2.338.193 3.7 1.087 3.7 2.38 0 1.416-1.76 2.367-4.691 2.367-2.932 0-4.678-.95-4.678-2.367 0-1.308 1.363-2.202 3.716-2.38v-.729h-4.911v-1.514h11.777v1.514H57.752zm3.605-1.954c-1.707-.096-3.783-1.004-4.595-2.352-.675 1.388-2.724 2.256-4.609 2.352-.261-.495-.51-1.004-.756-1.486 2.023-.083 3.646-.964 4.115-2.064h-3.48v-1.514h9.575v1.514h-3.59c.564 1.1 2.463 2.023 4.1 2.036l-.756 1.514h-.004zm-4.61 4.168c-1.581 0-2.668.316-2.668.908 0 .537 1.087.854 2.669.854s2.71-.317 2.71-.854c0-.592-1.086-.908-2.71-.908zM67.905 22.758v-2.064h-4.91v-1.526h8.116c.165-.675.316-1.996.303-2.835h-6.836v-1.526h8.764c.028 1.499-.068 3.123-.371 4.36h1.802v1.527h-4.91v2.064h3.439v4.65h-1.94v-3.123h-7.018v-1.527h3.563-.002zM79.035 15.409c2.023 0 3.618 1.293 3.618 3.219 0 1.925-1.597 3.206-3.618 3.206-2.022 0-3.605-1.308-3.605-3.206s1.581-3.22 3.605-3.22zm-1.996 11.694v-4.238h1.953v2.724h7.196v1.514h-9.149zm1.996-6.892c.964 0 1.732-.605 1.732-1.581 0-.977-.77-1.625-1.732-1.625s-1.707.62-1.707 1.625c0 1.004.743 1.581 1.707 1.581zm4.938 3.633v-9.465h1.954v9.465h-1.954zM87.701 20.983V14.97h1.926v1.582h2.214V14.97h1.94v6.013h-6.08zm1.652 6.274v-5.215h1.953v1.17h4.775v-1.17h1.94v5.215H89.353zm2.49-9.204H89.63v1.416h2.214v-1.416zm4.238 6.658h-4.775v1.032h4.775V24.71zm0-3.274v-2.711h-1.637v-1.624h1.637v-2.724h1.953v7.057h-1.953v.002zM100.729 27.352v-3.178h6.919v-.55h-6.947V22.29h1.416v-.62h-2.806v-1.431h11.777v1.43h-2.862v.62h1.361v3.124h-6.92v.605h7.223v1.335h-9.163.002zm.123-7.704v-3.055h6.7v-.55h-6.7v-1.349h8.654v3.068h-6.701v.537h6.962v1.349h-8.915zm3.206 2.64h2.242v-.62h-2.242v.62zM118.449 24.38c-1.045-.62-2.573-2.16-2.985-3.44-.385 1.417-1.83 3.109-3.041 3.756l-1.142-1.486c2.202-1.293 3.136-3.206 3.151-6.012h-2.503v-1.61h7.017v1.61h-2.504c.028 2.764 1.073 4.567 3.081 5.654l-1.072 1.526-.002.002zm1.843 3.04V14.378h1.968V27.42h-1.968zM127.005 24.023v1.57h7.788v1.513h-9.741v-3.811h1.624v-1.486a89.48 89.48 0 0 1-3.081.055l-.234-1.541c3.412 0 6.811-.194 8.516-.427.041.495.055.991.096 1.486-.977.15-2.159.248-3.372.331v2.312h-1.596v-.002zm.743-4.195c-1.968 0-3.301-.991-3.301-2.435s1.333-2.476 3.301-2.476c1.968 0 3.316 1.019 3.316 2.463 0 1.444-1.348 2.448-3.316 2.448zm0-3.48c-.771 0-1.363.427-1.363 1.032s.592 1.019 1.363 1.019 1.363-.4 1.363-1.02-.592-1.031-1.363-1.031zm2.586 5.71h2.367V14.38h1.926v10.042h-1.926v-1.031h-2.367v-1.336.002z" fill="#C91414"/>
    </g>
    <defs>
        <clipPath id="bgms80fs1a">
            <path fill="#fff" d="M0 0h134.793v32H0z"/>
        </clipPath>
    </defs>
</svg>
