<svg width="400" height="200" viewBox="0 0 400 200" fill="none" xmlns="http://www.w3.org/2000/svg">
<g clip-path="url(#clip0_1339_2227)">
<path d="M91.1338 81.1119C94.6224 81.1119 97.4436 78.2806 97.4436 74.8059C97.4436 71.3312 94.6224 68.5 91.1338 68.5C87.6454 68.5 84.8242 71.3195 84.8242 74.8059C84.8242 78.2923 87.6454 81.1119 91.1338 81.1119Z" fill="#4CB848"/>
<path d="M65.3443 93.8992H43.0089V70.8398H29.5V130.05H43.0089V106.266H65.3443V130.05H78.8533V70.8398H65.3443V93.8992Z" fill="white"/>
<path d="M97.6539 85.5342H84.625V130.039H97.6539V85.5342Z" fill="white"/>
<path d="M103.027 83.1358H121.031V130.05H134.529V83.1358H152.533V70.8398H103.027V83.1358Z" fill="white"/>
<path d="M170.783 106.113H196.185V94.063H170.783V82.8902H197.789V70.8398H157.367V130.05H199.24V117.988H170.783V106.113Z" fill="white"/>
<path d="M245.713 114.619C240.831 117.824 237.202 118.948 231.817 118.948C220.884 118.948 215.792 113.039 215.792 100.357C215.792 87.6752 220.989 81.9308 232.145 81.9308C237.062 81.9308 240.281 82.9604 244.905 86.0256L246.38 86.9966L251.179 76.128L250.267 75.4143C245.28 71.5301 239.145 69.6348 231.513 69.6348C213.193 69.6348 201.814 81.4044 201.814 100.357C201.814 119.31 212.491 131.244 231.115 131.244C238.993 131.244 245.502 129.313 251.027 125.335L251.999 124.633L247.199 113.648L245.725 114.619H245.713Z" fill="white"/>
<path d="M280.13 69.6348C262.816 69.6348 251.637 81.7553 251.637 100.521C251.637 119.287 262.816 131.244 280.13 131.244C297.443 131.244 308.622 119.181 308.622 100.521C308.622 81.8606 297.431 69.6348 280.13 69.6348ZM280.13 118.959C268.143 118.959 265.626 108.933 265.626 100.533C265.626 92.1326 268.143 81.9425 280.13 81.9425C292.117 81.9425 294.634 92.0507 294.634 100.533C294.634 109.015 292.117 118.959 280.13 118.959Z" fill="white"/>
<path d="M314.264 79.6378C314.264 75.894 316.406 73.3786 320.304 73.3786C321.873 73.3786 323.125 73.753 324.167 74.5602L323.465 76.1397C322.388 75.4377 321.592 75.1803 320.409 75.1803C317.682 75.1803 316.359 76.6778 316.359 79.6378C316.359 82.5977 317.694 84.142 320.351 84.142C321.241 84.142 321.99 84.025 322.575 83.7676V80.8428H320.082V79.1464H324.448V84.7972C323.266 85.5693 321.849 85.932 320.199 85.932C316.406 85.932 314.264 83.6506 314.264 79.6378Z" fill="white"/>
<path d="M330.943 81.182H328.65V85.6746H326.695V73.636H330.863C333.707 73.636 335.217 74.958 335.217 77.4031C335.217 79.1347 334.422 80.3397 332.924 80.8779L335.768 85.6746H333.507L330.943 81.182ZM330.711 79.4973C332.408 79.4973 333.168 78.8071 333.168 77.4031C333.168 75.9992 332.373 75.3207 330.723 75.3207H328.65V79.4973H330.711Z" fill="white"/>
<path d="M336.775 79.6729C336.775 75.8238 338.952 73.3786 342.407 73.3786C345.859 73.3786 348.024 75.8238 348.024 79.6729C348.024 83.5219 345.847 85.932 342.407 85.932C338.964 85.932 336.775 83.5102 336.775 79.6729ZM345.93 79.6729C345.93 76.7714 344.676 75.1803 342.407 75.1803C340.135 75.1803 338.872 76.7597 338.872 79.6729C338.872 82.586 340.135 84.1303 342.407 84.1303C344.676 84.1303 345.93 82.5509 345.93 79.6729Z" fill="white"/>
<path d="M349.957 80.9715V73.6243H351.959V81.1938C351.959 83.0657 352.953 84.1186 354.746 84.1186C356.536 84.1186 357.507 83.0891 357.507 81.1938V73.6243H359.508V80.9715C359.508 84.0835 357.742 85.9203 354.734 85.9203C351.723 85.9203 349.945 84.0835 349.945 80.9715H349.957Z" fill="white"/>
<path d="M361.992 73.636H365.971C368.887 73.636 370.453 74.9931 370.453 77.5201C370.453 80.0472 368.875 81.4277 365.947 81.4277H363.946V85.6746H361.992V73.636ZM365.807 79.743C367.609 79.743 368.419 79.0411 368.419 77.5201C368.419 75.9992 367.609 75.3207 365.819 75.3207H363.946V79.743H365.807Z" fill="white"/>
</g>
<defs>
<clipPath id="clip0_1339_2227">
<rect width="341" height="63" fill="white" transform="translate(29.5 68.5)"/>
</clipPath>
</defs>
</svg>
