<svg width="71" height="17" viewBox="0 0 71 17" fill="none" xmlns="http://www.w3.org/2000/svg">
<path d="M3.256 8.312V15.832H0.632V1.128H3.256V7.656H8.968V1.128H11.608V15.832H8.968V8.312H3.256ZM20.6198 15.352H20.8438C20.9398 15.352 21.1211 15.3147 21.3878 15.24C21.6651 15.1653 21.9264 15.0587 22.1718 14.92C22.4278 14.7813 22.7051 14.5467 23.0038 14.216C23.3131 13.8853 23.5744 13.4853 23.7878 13.016C24.0118 12.5573 24.1984 11.944 24.3478 11.176C24.4971 10.3973 24.5718 9.528 24.5718 8.568C24.5718 7.8 24.5238 7.096 24.4278 6.456C24.3424 5.816 24.2198 5.27733 24.0598 4.84C23.9104 4.392 23.7344 3.992 23.5318 3.64C23.3398 3.288 23.1318 3.01067 22.9078 2.808C22.6944 2.59467 22.4758 2.41333 22.2517 2.264C22.0384 2.11467 21.8304 2.01333 21.6278 1.96C21.4358 1.896 21.2651 1.848 21.1158 1.816C20.9664 1.784 20.8438 1.768 20.7478 1.768H20.6198H20.3958C20.2998 1.768 20.1131 1.80533 19.8358 1.88C19.5584 1.95467 19.2971 2.06133 19.0518 2.2C18.8064 2.33867 18.5291 2.57333 18.2198 2.904C17.9211 3.23467 17.6598 3.63467 17.4358 4.104C17.2118 4.56267 17.0251 5.18133 16.8758 5.96C16.7264 6.728 16.6518 7.59733 16.6518 8.568C16.6518 9.32533 16.6944 10.024 16.7798 10.664C16.8758 11.304 16.9984 11.848 17.1478 12.296C17.3078 12.7333 17.4838 13.128 17.6758 13.48C17.8784 13.832 18.0864 14.1093 18.2998 14.312C18.5238 14.5253 18.7424 14.7067 18.9558 14.856C19.1798 15.0053 19.3878 15.1067 19.5798 15.16C19.7824 15.224 19.9584 15.272 20.1078 15.304C20.2678 15.336 20.3904 15.352 20.4758 15.352H20.6198ZM20.6198 1.112C20.7051 1.10133 20.8278 1.10133 20.9878 1.112C21.1478 1.112 21.4571 1.14933 21.9158 1.224C22.3851 1.29867 22.8278 1.416 23.2438 1.576C23.6704 1.72533 24.1398 1.98667 24.6518 2.36C25.1638 2.72267 25.6011 3.16 25.9638 3.672C26.3371 4.17333 26.6464 4.85067 26.8918 5.704C27.1478 6.54667 27.2758 7.50133 27.2758 8.568C27.2758 9.4 27.2011 10.168 27.0518 10.872C26.9024 11.576 26.6944 12.1733 26.4278 12.664C26.1718 13.144 25.8784 13.576 25.5478 13.96C25.2171 14.3547 24.8651 14.664 24.4918 14.888C24.1291 15.112 23.7611 15.304 23.3878 15.464C23.0251 15.6347 22.6731 15.752 22.3318 15.816C22.0011 15.8907 21.7078 15.944 21.4518 15.976C21.1958 16.008 20.9931 16.024 20.8438 16.024H20.6198H20.2358C20.0758 16.024 19.7611 15.9813 19.2918 15.896C18.8331 15.8213 18.3958 15.704 17.9798 15.544C17.5638 15.3947 17.0998 15.1333 16.5878 14.76C16.0758 14.3973 15.6331 13.96 15.2598 13.448C14.8971 12.9467 14.5878 12.2747 14.3318 11.432C14.0758 10.5787 13.9478 9.624 13.9478 8.568C13.9478 7.72533 14.0224 6.952 14.1718 6.248C14.3318 5.544 14.5398 4.952 14.7958 4.472C15.0518 3.98133 15.3451 3.544 15.6758 3.16C16.0064 2.776 16.3531 2.472 16.7158 2.248C17.0891 2.01333 17.4624 1.816 17.8358 1.656C18.2091 1.48533 18.5611 1.368 18.8918 1.304C19.2224 1.22933 19.5158 1.176 19.7718 1.144C20.0278 1.112 20.2304 1.096 20.3798 1.096L20.6198 1.112ZM35.7135 15.352H35.9375C36.0335 15.352 36.2148 15.3147 36.4815 15.24C36.7588 15.1653 37.0202 15.0587 37.2655 14.92C37.5215 14.7813 37.7988 14.5467 38.0975 14.216C38.4068 13.8853 38.6682 13.4853 38.8815 13.016C39.1055 12.5573 39.2922 11.944 39.4415 11.176C39.5908 10.3973 39.6655 9.528 39.6655 8.568C39.6655 7.8 39.6175 7.096 39.5215 6.456C39.4362 5.816 39.3135 5.27733 39.1535 4.84C39.0042 4.392 38.8282 3.992 38.6255 3.64C38.4335 3.288 38.2255 3.01067 38.0015 2.808C37.7882 2.59467 37.5695 2.41333 37.3455 2.264C37.1322 2.11467 36.9242 2.01333 36.7215 1.96C36.5295 1.896 36.3588 1.848 36.2095 1.816C36.0602 1.784 35.9375 1.768 35.8415 1.768H35.7135H35.4895C35.3935 1.768 35.2068 1.80533 34.9295 1.88C34.6522 1.95467 34.3908 2.06133 34.1455 2.2C33.9002 2.33867 33.6228 2.57333 33.3135 2.904C33.0148 3.23467 32.7535 3.63467 32.5295 4.104C32.3055 4.56267 32.1188 5.18133 31.9695 5.96C31.8202 6.728 31.7455 7.59733 31.7455 8.568C31.7455 9.32533 31.7882 10.024 31.8735 10.664C31.9695 11.304 32.0922 11.848 32.2415 12.296C32.4015 12.7333 32.5775 13.128 32.7695 13.48C32.9722 13.832 33.1802 14.1093 33.3935 14.312C33.6175 14.5253 33.8362 14.7067 34.0495 14.856C34.2735 15.0053 34.4815 15.1067 34.6735 15.16C34.8762 15.224 35.0522 15.272 35.2015 15.304C35.3615 15.336 35.4842 15.352 35.5695 15.352H35.7135ZM35.7135 1.112C35.7988 1.10133 35.9215 1.10133 36.0815 1.112C36.2415 1.112 36.5508 1.14933 37.0095 1.224C37.4788 1.29867 37.9215 1.416 38.3375 1.576C38.7642 1.72533 39.2335 1.98667 39.7455 2.36C40.2575 2.72267 40.6948 3.16 41.0575 3.672C41.4308 4.17333 41.7402 4.85067 41.9855 5.704C42.2415 6.54667 42.3695 7.50133 42.3695 8.568C42.3695 9.4 42.2948 10.168 42.1455 10.872C41.9962 11.576 41.7882 12.1733 41.5215 12.664C41.2655 13.144 40.9722 13.576 40.6415 13.96C40.3108 14.3547 39.9588 14.664 39.5855 14.888C39.2228 15.112 38.8548 15.304 38.4815 15.464C38.1188 15.6347 37.7668 15.752 37.4255 15.816C37.0948 15.8907 36.8015 15.944 36.5455 15.976C36.2895 16.008 36.0868 16.024 35.9375 16.024H35.7135H35.3295C35.1695 16.024 34.8548 15.9813 34.3855 15.896C33.9268 15.8213 33.4895 15.704 33.0735 15.544C32.6575 15.3947 32.1935 15.1333 31.6815 14.76C31.1695 14.3973 30.7268 13.96 30.3535 13.448C29.9908 12.9467 29.6815 12.2747 29.4255 11.432C29.1695 10.5787 29.0415 9.624 29.0415 8.568C29.0415 7.72533 29.1162 6.952 29.2655 6.248C29.4255 5.544 29.6335 4.952 29.8895 4.472C30.1455 3.98133 30.4388 3.544 30.7695 3.16C31.1002 2.776 31.4468 2.472 31.8095 2.248C32.1828 2.01333 32.5562 1.816 32.9295 1.656C33.3028 1.48533 33.6548 1.368 33.9855 1.304C34.3162 1.22933 34.6095 1.176 34.8655 1.144C35.1215 1.112 35.3242 1.096 35.4735 1.096L35.7135 1.112ZM53.1913 15.032V1.112H53.8473V15.816H53.1913H50.8873L45.2713 2.312V15.816H44.6153V1.112H44.7753H47.3993L53.1913 15.032ZM58.6923 1.544L57.7643 4.408H55.5403L56.4523 1.544H58.6923ZM64.6621 6.904C64.8115 6.95733 65.0355 7.032 65.3341 7.128C65.8568 7.29867 66.2515 7.432 66.5181 7.528C66.7955 7.624 67.1635 7.768 67.6221 7.96C68.0808 8.14133 68.4328 8.30667 68.6781 8.456C68.9235 8.60533 69.2061 8.808 69.5261 9.064C69.8461 9.30933 70.0861 9.56533 70.2461 9.832C70.4061 10.088 70.5395 10.3973 70.6461 10.76C70.7635 11.112 70.8221 11.496 70.8221 11.912C70.8221 12.4667 70.7208 12.968 70.5181 13.416C70.3155 13.864 70.0488 14.216 69.7181 14.472C69.3981 14.7387 69.0408 14.968 68.6461 15.16C68.2621 15.352 67.8728 15.4853 67.4781 15.56C67.0835 15.6453 66.7208 15.7093 66.3901 15.752C66.0701 15.7947 65.8088 15.816 65.6061 15.816H65.3021C65.2275 15.8267 65.1208 15.8267 64.9821 15.816C64.8541 15.816 64.5981 15.7947 64.2141 15.752C63.8301 15.72 63.4621 15.6613 63.1101 15.576C62.7688 15.4907 62.3848 15.352 61.9581 15.16C61.5421 14.968 61.1795 14.7387 60.8701 14.472C60.5608 14.216 60.2995 13.864 60.0861 13.416C59.8835 12.968 59.7821 12.4667 59.7821 11.912L62.6621 11.768C62.6621 13.4 63.2381 14.424 64.3901 14.84C64.7208 14.9573 65.0248 15.0107 65.3021 15H65.4461C65.5101 15 65.6275 14.984 65.7981 14.952C65.9688 14.92 66.1341 14.872 66.2941 14.808C66.4541 14.7547 66.6301 14.6533 66.8221 14.504C67.0248 14.3653 67.2008 14.1947 67.3501 13.992C67.4995 13.8 67.6275 13.5387 67.7341 13.208C67.8515 12.8773 67.9208 12.5093 67.9421 12.104V12.04V12.008C67.9741 11.2933 67.6701 10.6267 67.0301 10.008C66.4008 9.37867 65.6008 8.952 64.6301 8.728C63.4888 8.408 62.6035 8.06667 61.9741 7.704C61.3448 7.34133 60.9128 6.94133 60.6781 6.504C60.4435 6.056 60.3315 5.50133 60.3421 4.84C60.3635 3.048 61.2701 1.85867 63.0621 1.272C63.8301 1.016 64.5768 0.898666 65.3021 0.919999H65.5901C65.6968 0.919999 65.9208 0.941332 66.2621 0.983999C66.6035 1.02667 66.9235 1.08533 67.2221 1.16C67.5315 1.23467 67.8728 1.368 68.2461 1.56C68.6301 1.74133 68.9608 1.96 69.2381 2.216C69.5155 2.472 69.7501 2.81333 69.9421 3.24C70.1448 3.66667 70.2568 4.152 70.2781 4.696H67.6861C67.6861 4.22667 67.6435 3.81067 67.5581 3.448C67.4728 3.07467 67.3555 2.78133 67.2061 2.568C67.0675 2.344 66.9128 2.15733 66.7421 2.008C66.5821 1.848 66.4168 1.736 66.2461 1.672C66.0755 1.59733 65.9208 1.544 65.7821 1.512C65.6435 1.46933 65.5261 1.45333 65.4301 1.464H65.3021C65.2701 1.45333 65.2275 1.45333 65.1741 1.464C65.1208 1.464 65.0141 1.48 64.8541 1.512C64.7048 1.53333 64.5608 1.576 64.4221 1.64C64.2835 1.69333 64.1235 1.79467 63.9421 1.944C63.7608 2.08267 63.6008 2.248 63.4621 2.44C63.3341 2.632 63.2168 2.89333 63.1101 3.224C63.0141 3.544 62.9555 3.912 62.9341 4.328V4.488C62.9341 4.936 63.0355 5.352 63.2381 5.736C63.4835 6.19467 63.8355 6.54133 64.2941 6.776C64.3475 6.808 64.4701 6.85067 64.6621 6.904Z" fill="white"/>
</svg>
