<svg width="33" height="33" viewBox="0 0 33 33" fill="none" xmlns="http://www.w3.org/2000/svg">
    <g clip-path="url(#2z84xp2lna)">
        <circle cx="16.947" cy="16.946" r="15.162" fill="#fff" fill-opacity=".5"/>
        <circle cx="16.499" cy="6.689" r="2.23" fill="#44A5FF"/>
        <circle cx="6.691" cy="16.5" r="2.23" fill="#44A5FF"/>
        <circle cx="26.312" cy="16.5" r="2.23" fill="#44A5FF"/>
        <circle cx="16.499" cy="26.311" r="2.23" fill="#44A5FF"/>
        <path d="M16.502 4.311c-6.722 0-12.19 5.468-12.19 12.19 0 6.72 5.468 12.188 12.19 12.188 6.72 0 12.189-5.468 12.189-12.189S23.223 4.311 16.5 4.311zM7.08 17.009c0 .28-.228.507-.508.507h-.939a.507.507 0 0 1-.507-.507V15.99c0-.28.227-.507.507-.507h.94c.28 0 .507.227.507.507v1.018zm8.443-11.337c0-.281.228-.508.508-.508h.939c.28 0 .507.228.507.508v1.017c0 .28-.227.507-.507.507h-.94a.507.507 0 0 1-.507-.507V5.672zm1.955 21.657c0 .28-.228.508-.508.508h-.939a.507.507 0 0 1-.507-.508v-1.017c0-.28.227-.508.507-.508h.94c.28 0 .507.228.507.508v1.017zm5.054-14.945L19.24 15.37l-2.291 2.079a.667.667 0 0 1-.446.172l-3.093.007-1.899.005a.887.887 0 0 1-.889-.884l-.001-.471a.886.886 0 0 1 .884-.888l4.385-.01 5.134-4.658a.887.887 0 0 1 1.253.061l.316.349a.886.886 0 0 1-.06 1.252zm4.836 5.133h-.939a.507.507 0 0 1-.507-.508v-1.017c0-.28.227-.507.507-.507h.94c.28 0 .507.227.507.507v1.017c0 .28-.228.508-.508.508z" fill="#44A5FF"/>
        <path d="M16.5 0C7.387 0 0 7.387 0 16.5S7.387 33 16.5 33 33 25.613 33 16.5 25.613 0 16.5 0zm0 30.905c-7.956 0-14.405-6.45-14.405-14.405 0-7.956 6.45-14.405 14.405-14.405 7.956 0 14.405 6.45 14.405 14.405 0 7.956-6.45 14.405-14.405 14.405z" fill="#44A5FF"/>
    </g>
    <defs>
        <clipPath id="2z84xp2lna">
            <path fill="#fff" d="M0 0h33v33H0z"/>
        </clipPath>
    </defs>
</svg>
